<svg xmlns="http://www.w3.org/2000/svg" viewBox="0 0 233.81 186.48"><defs><style>.cls-1{fill:#fff;}</style></defs><g id="Layer_2" data-name="Layer 2"><g id="Layer_1-2" data-name="Layer 1"><path class="cls-1" d="M93.34,148.77a110.51,110.51,0,0,1-7.78-21.11A22,22,0,1,1,83.25,100V46.12L82,45.9l-1.54-.22c-.64-.09-1.27-.17-1.91-.24l-1.3-.13c-.71-.07-1.42-.12-2.14-.16L74,45.08c-1.09,0-2.18-.08-3.28-.08A70.83,70.83,0,0,0,60,45.82a68.74,68.74,0,0,0-6.91,1.41,70,70,0,0,0-13,4.75c-2.06,1-4.07,2.08-6,3.26-1,.59-1.93,1.21-2.87,1.84a70.69,70.69,0,0,0-8,6.3q-1.26,1.14-2.46,2.34a71.13,71.13,0,0,0-8.64,10.47A70.75,70.75,0,0,0,70.74,186.48c1.14,0,2.27,0,3.39-.08l1.49-.1c.6,0,1.2-.08,1.79-.14s1.28-.14,1.91-.21l1.28-.16c.71-.1,1.42-.22,2.12-.34l.51-.08h0a70.29,70.29,0,0,0,27.33-11.16A110.68,110.68,0,0,1,93.34,148.77Z"/><path class="cls-1" d="M163.06,45a70.3,70.3,0,0,0-12.48,1.12v52a21.56,21.56,0,1,1-9.1,17.58h0V0H92.32V48.36h0l.33,67.8a65.71,65.71,0,0,0,3.11,14.91,89.66,89.66,0,0,0,5.89,13.2c.87,1.67,2.38,4.62,4.39,7.83a93.58,93.58,0,0,0,12.51,15.83,61.85,61.85,0,0,0,24.75,15.75,66.12,66.12,0,0,0,19.81,2.81,70.74,70.74,0,1,0,0-141.48Z"/></g></g></svg>