<svg id="Layer_1" data-name="Layer 1" xmlns="http://www.w3.org/2000/svg" viewBox="0 0 300 300"><defs><style>.cls-1{fill:#b73a1c;}.cls-2{fill:#fff;}</style></defs><rect class="cls-1" width="300" height="300"/><path class="cls-2" d="M126.44,205.53a110.34,110.34,0,0,1-7.78-21.12,22,22,0,1,1-2.31-27.71V102.88l-1.25-.22-1.55-.22c-.63-.09-1.26-.17-1.9-.24l-1.3-.13c-.71-.07-1.43-.12-2.14-.16l-1.1-.07c-1.08,0-2.17-.08-3.27-.08a72.14,72.14,0,0,0-10.77.81A68.19,68.19,0,0,0,86.16,104a70.41,70.41,0,0,0-13,4.74c-2.06,1-4.07,2.09-6,3.27-1,.59-1.93,1.2-2.87,1.84a70.8,70.8,0,0,0-8,6.3c-.83.76-1.65,1.54-2.45,2.34a70.74,70.74,0,0,0,50,120.76c1.13,0,2.26,0,3.39-.08l1.49-.1c.59-.05,1.19-.08,1.79-.14s1.27-.14,1.91-.21l1.28-.17c.71-.1,1.41-.21,2.12-.33l.5-.08h0A70.42,70.42,0,0,0,143.66,231,110.37,110.37,0,0,1,126.44,205.53Z" transform="translate(-0.17)"/><path class="cls-2" d="M196.16,101.76a70.3,70.3,0,0,0-12.48,1.12v52a21.56,21.56,0,1,1-9.1,17.58h0V56.76H125.42v48.36h0l.33,67.79a65.81,65.81,0,0,0,3.11,14.92A88.62,88.62,0,0,0,134.7,201c.86,1.67,2.38,4.61,4.39,7.83a93.07,93.07,0,0,0,12.51,15.83,61.65,61.65,0,0,0,24.75,15.74,65.94,65.94,0,0,0,19.81,2.82,70.74,70.74,0,0,0,0-141.48Z" transform="translate(-0.17)"/></svg>